<svg xmlns="http://www.w3.org/2000/svg" viewBox="0 0 48 48"><defs><style>.cls-1{fill:#dad7e5;}.cls-2{fill:#edebf2;}.cls-3{fill:#db5669;}.cls-4{fill:#f26674;}.cls-5{fill:#a87e6b;}.cls-6{fill:#be927c;}.cls-7{fill:#c6c3d8;}.cls-8{fill:#82bcf4;}</style></defs><title>Exchange</title><g id="Exchange"><circle class="cls-1" cx="24" cy="24" r="16"/><path class="cls-2" d="M24,8a16,16,0,0,0-12.92,6.58A16,16,0,0,1,33.42,36.92C45.92,27.79,39.42,8,24,8Z"/><path class="cls-3" d="M34,24c-2.69,9-2.33,7.77-2.57,8.57A2,2,0,0,1,29.51,34h-11a2,2,0,0,1-1.92-1.43L14,24Z"/><path class="cls-4" d="M34,24l-2.4,8H24a4,4,0,0,1-4-4V24Z"/><polygon class="cls-3" points="34 24 33.4 26 20 26 20 24 34 24"/><path class="cls-3" d="M35,23a2,2,0,0,1-2,2H15a2,2,0,0,1,0-4H33A2,2,0,0,1,35,23Z"/><path class="cls-4" d="M35,23a2,2,0,0,1-2,2H20V21H33A2,2,0,0,1,35,23Z"/><path class="cls-5" d="M17,22a1,1,0,0,1-.89-1.45l3-6a1,1,0,0,1,1.78.9C17.65,21.93,17.83,22,17,22Z"/><path class="cls-6" d="M19.11,15.55a1,1,0,0,1,1.75,0,1,1,0,1,0-1.75-1c-3.28,6.55-3.32,6.29-3,6.93Z"/><path class="cls-6" d="M31,22c-.84,0-.66-.09-3.89-6.55a1,1,0,0,1,1.78-.9l3,6A1,1,0,0,1,31,22Z"/><path class="cls-1" d="M18,30V28a1,1,0,0,1,2,0v2A1,1,0,0,1,18,30Z"/><path class="cls-1" d="M23,30V28a1,1,0,0,1,2,0v2A1,1,0,0,1,23,30Z"/><path class="cls-7" d="M23,28a1,1,0,0,1,1,1v2a1,1,0,0,0,1-1V28A1,1,0,0,0,23,28Z"/><path class="cls-1" d="M28,30V28a1,1,0,0,1,2,0v2A1,1,0,0,1,28,30Z"/><path class="cls-7" d="M28,28a1,1,0,0,1,1,1v2a1,1,0,0,0,1-1V28A1,1,0,0,0,28,28Z"/><path class="cls-8" d="M23,44.26C5.62,44.26-3.35,23.64,8.15,10.88l-.15,2a1,1,0,0,0,2,.14c.45-6.3,1.3-5.45-5.06-5.07a1,1,0,0,0,.12,2l1.27-.08C-5.85,24.08,4.16,46.26,23,46.26A1,1,0,0,0,23,44.26Z"/><path class="cls-8" d="M42.94,38l-1.27.08C53.85,23.92,43.84,1.74,25,1.74a1,1,0,0,0,0,2c17.37,0,26.35,20.62,14.85,33.38l.15-2a1,1,0,0,0-2-.14c-.45,6.34-1.26,5.45,5.06,5.07A1,1,0,0,0,42.94,38Z"/></g></svg>